<svg viewBox="0 0 60 60" width="100%" height="100%" xmlns="http://www.w3.org/2000/svg">
    <path d="M30,48 C30,48 14,38 14,26 C14,18 22,12 30,18 C38,12 46,18 46,26 C46,38 30,48 30,48Z" fill="none" stroke="#993C1D" stroke-width="1.2"/>
    <path d="M30,42 C30,42 20,34 20,26 C20,21 25,18 30,22 C35,18 40,21 40,26 C40,34 30,42 30,42Z" fill="#993C1D" fill-opacity="0.2"/>
    <path d="M30,36 C27,32 24,28 26,24 C28,20 30,22 30,26 C30,22 32,20 34,24 C36,28 33,32 30,36Z" fill="#993C1D" fill-opacity="0.5"/>
    <circle cx="30" cy="30" r="2.5" fill="#993C1D"/>
  </svg>